# xmcd
#
# Track frame offsets: 
#        150
#        19698
#        33165
#        47967
#        68505
#        87389
#        108328
#        127007
#        141887
#        154396
#        173478
#        185556
#
# Disc length: 2733 seconds
#
# Revision: 0
# Processed by: cddbd v1.5.2PL0 Copyright (c) Steve Scherf et al.
# Submitted via: ExactAudioCopy v0.99pb5
#
DISCID=9e0aab0c
DTITLE=Vaniljfamiljen - Bombväder
DYEAR=2007
DGENRE=Rock
TTITLE0=Manikarnika
TTITLE1=Precis som mirakel
TTITLE2=STAU
TTITLE3=Underbarn
TTITLE4=Rungande applåder
TTITLE5=HT highway
TTITLE6=Älska mig hata mig
TTITLE7=Förbi dig
TTITLE8=Plattform
TTITLE9=Aldrig så här
TTITLE10=Långsamt härifrån
TTITLE11=Tills jag somnar
EXTD=
EXTT0=
EXTT1=
EXTT2=
EXTT3=
EXTT4=
EXTT5=
EXTT6=
EXTT7=
EXTT8=
EXTT9=
EXTT10=
EXTT11=
PLAYORDER=
